<?xml version="1.0" encoding="UTF-8" standalone="no"?>
<!DOCTYPE svg PUBLIC "-//W3C//DTD SVG 1.1//EN" "http://www.w3.org/Graphics/SVG/1.1/DTD/svg11.dtd">
<svg version="1.1" xmlns="http://www.w3.org/2000/svg" xmlns:xlink="http://www.w3.org/1999/xlink" preserveAspectRatio="xMidYMid meet" viewBox="0 0 1024 1024" width="1024" height="1024"><defs><path d="M435.25 928.07C435.25 970.43 400.86 1004.82 358.5 1004.82C316.14 1004.82 281.75 970.43 281.75 928.07C281.75 885.71 316.14 851.32 358.5 851.32C400.86 851.32 435.25 885.71 435.25 928.07Z" id="c2yNAV3xyH"></path><path d="M588.75 85.79C588.75 128.15 554.36 162.54 512 162.54C469.64 162.54 435.25 128.15 435.25 85.79C435.25 43.43 469.64 9.04 512 9.04C554.36 9.04 588.75 43.43 588.75 85.79Z" id="b1ksCgWKo8"></path><path d="M742.25 928.07C742.25 970.43 707.86 1004.82 665.5 1004.82C623.14 1004.82 588.75 970.43 588.75 928.07C588.75 885.71 623.14 851.32 665.5 851.32C707.86 851.32 742.25 885.71 742.25 928.07Z" id="bbzsgDVO4"></path><path d="M297.67 206.75C297.67 249.11 263.28 283.5 220.92 283.5C178.56 283.5 144.17 249.11 144.17 206.75C144.17 164.39 178.56 130 220.92 130C263.28 130 297.67 164.39 297.67 206.75Z" id="aMTGutanp"></path><path d="M883.39 207.45C883.39 249.81 849 284.2 806.64 284.2C764.28 284.2 729.89 249.81 729.89 207.45C729.89 165.09 764.28 130.7 806.64 130.7C849 130.7 883.39 165.09 883.39 207.45Z" id="e2Jgyfqcl"></path><path d="M164.46 454.34C164.46 496.7 130.07 531.09 87.71 531.09C45.35 531.09 10.96 496.7 10.96 454.34C10.96 411.98 45.35 377.59 87.71 377.59C130.07 377.59 164.46 411.98 164.46 454.34Z" id="c6QPs9mRb7"></path><path d="M1013.04 454.34C1013.04 496.7 978.65 531.09 936.29 531.09C893.93 531.09 859.54 496.7 859.54 454.34C859.54 411.98 893.93 377.59 936.29 377.59C978.65 377.59 1013.04 411.98 1013.04 454.34Z" id="c8YsXPyBTo"></path><path d="M208.58 740.04C208.58 782.39 174.19 816.79 131.83 816.79C89.47 816.79 55.08 782.39 55.08 740.04C55.08 697.68 89.47 663.29 131.83 663.29C174.19 663.29 208.58 697.68 208.58 740.04Z" id="bh5pNvkn2"></path><path d="M971.66 740.04C971.66 782.39 937.27 816.79 894.91 816.79C852.55 816.79 818.16 782.39 818.16 740.04C818.16 697.68 852.55 663.29 894.91 663.29C937.27 663.29 971.66 697.68 971.66 740.04Z" id="c2c5wrJQos"></path></defs><g><g><g><use xlink:href="#c2yNAV3xyH" opacity="1" fill="#fe7617" fill-opacity="1"></use></g><g><use xlink:href="#b1ksCgWKo8" opacity="1" fill="#fe7617" fill-opacity="1"></use></g><g><use xlink:href="#bbzsgDVO4" opacity="1" fill="#fe7617" fill-opacity="1"></use></g><g><use xlink:href="#aMTGutanp" opacity="1" fill="#fe7617" fill-opacity="1"></use></g><g><use xlink:href="#e2Jgyfqcl" opacity="1" fill="#fe7617" fill-opacity="1"></use></g><g><use xlink:href="#c6QPs9mRb7" opacity="1" fill="#fe7617" fill-opacity="1"></use></g><g><use xlink:href="#c8YsXPyBTo" opacity="1" fill="#fe7617" fill-opacity="1"></use></g><g><use xlink:href="#bh5pNvkn2" opacity="1" fill="#fe7617" fill-opacity="1"></use></g><g><use xlink:href="#c2c5wrJQos" opacity="1" fill="#fe7617" fill-opacity="1"></use></g></g></g></svg>